<svg class="animated" id="freepik_stories-halloween-pumpkin-with-a-face-mask" xmlns="http://www.w3.org/2000/svg" viewBox="0 0 500 500" version="1.1" xmlns:xlink="http://www.w3.org/1999/xlink" xmlns:svgjs="http://svgjs.com/svgjs"><style>svg#freepik_stories-halloween-pumpkin-with-a-face-mask:not(.animated) .animable {opacity: 0;}svg#freepik_stories-halloween-pumpkin-with-a-face-mask.animated #freepik--Moon--inject-317 {animation: 3s Infinite  linear floating;animation-delay: 0s;}svg#freepik_stories-halloween-pumpkin-with-a-face-mask.animated #freepik--Bats--inject-317 {animation: 1.5s Infinite  linear floating;animation-delay: 0s;}            @keyframes floating {                0% {                    opacity: 1;                    transform: translateY(0px);                }                50% {                    transform: translateY(-10px);                }                100% {                    opacity: 1;                    transform: translateY(0px);                }            }        </style><g id="freepik--Moon--inject-317" class="animable" style="transform-origin: 376.847px 87.7298px;"><circle cx="376.84" cy="87.73" r="52.33" style="fill: rgb(255, 255, 255); transform-origin: 376.84px 87.73px;" id="ell981hmwqhz" class="animable"></circle><g id="elyfbjm7lh8vd"><circle cx="376.84" cy="87.73" r="52.33" style="fill: rgb(255, 199, 39); opacity: 0.6; transform-origin: 376.84px 87.73px;" class="animable"></circle></g><g id="elkbgre717298"><path d="M413.85,124.74a52.34,52.34,0,0,1-89.32-38.49,49.48,49.48,0,1,0,50.84-50.83,52.33,52.33,0,0,1,38.48,89.32Z" style="fill: rgb(255, 199, 39); opacity: 0.6; transform-origin: 376.847px 87.7298px;" class="animable"></path></g><g id="eltjjnk36j7kk"><g style="opacity: 0.5; transform-origin: 376.031px 92.6013px;" class="animable"><path d="M349.85,104.08a4.62,4.62,0,0,1,1.49,3.36,5.07,5.07,0,0,1-1.48,3.69,4.57,4.57,0,0,1-3.83,1.32,5.53,5.53,0,0,1-3.29-1.58,17.12,17.12,0,0,0,3.25-.22,4,4,0,0,0,2.25-1.12,5.45,5.45,0,0,0,1.32-2.28A9.54,9.54,0,0,0,349.85,104.08Z" style="fill: rgb(255, 199, 39); transform-origin: 347.041px 108.283px;" id="eljd4qdjghp1" class="animable"></path><path d="M343.37,109.16a3,3,0,0,1-1.3-2.32,3.57,3.57,0,0,1,1-2.74,3.25,3.25,0,0,1,2.86-.93,3.49,3.49,0,0,1,2.25,1.36A16.21,16.21,0,0,0,346,105a2.94,2.94,0,0,0-1.28.73,4.1,4.1,0,0,0-.87,1.32A7.64,7.64,0,0,0,343.37,109.16Z" style="fill: rgb(255, 199, 39); transform-origin: 345.121px 106.142px;" id="ele2okvrk74pj" class="animable"></path><path d="M413.8,61.87a4.69,4.69,0,0,1-1.12,3.51,5.14,5.14,0,0,1-3.57,1.78,4.58,4.58,0,0,1-3.73-1.57A5.46,5.46,0,0,1,404,62.23a16.89,16.89,0,0,0,2.57,2,4.09,4.09,0,0,0,2.43.66,5.48,5.48,0,0,0,2.5-.82A9.82,9.82,0,0,0,413.8,61.87Z" style="fill: rgb(255, 199, 39); transform-origin: 408.911px 64.519px;" id="elsmf2f6q04e" class="animable"></path><path d="M405.57,61.36a3,3,0,0,1,.57-2.59,3.61,3.61,0,0,1,2.6-1.37,3.25,3.25,0,0,1,2.75,1.22,3.36,3.36,0,0,1,.77,2.5A16.2,16.2,0,0,0,410.32,60a2.83,2.83,0,0,0-1.44-.3,4.17,4.17,0,0,0-1.53.41A7.66,7.66,0,0,0,405.57,61.36Z" style="fill: rgb(255, 199, 39); transform-origin: 408.88px 59.3767px;" id="el4j2v38y2xst" class="animable"></path><path d="M345,72.5a3.18,3.18,0,0,1-.76,2.38,3.45,3.45,0,0,1-2.43,1.21A3.09,3.09,0,0,1,339.24,75a3.75,3.75,0,0,1-1-2.29A11.63,11.63,0,0,0,340,74.1a2.76,2.76,0,0,0,1.65.44,3.64,3.64,0,0,0,1.7-.56A6.59,6.59,0,0,0,345,72.5Z" style="fill: rgb(255, 199, 39); transform-origin: 341.627px 74.2985px;" id="elnom6qvfx0y" class="animable"></path><path d="M339.37,72.15a2.05,2.05,0,0,1,.39-1.77,2.43,2.43,0,0,1,1.77-.93,2.2,2.2,0,0,1,1.87.83,2.24,2.24,0,0,1,.53,1.7,11.19,11.19,0,0,0-1.32-.77,1.91,1.91,0,0,0-1-.21,3.1,3.1,0,0,0-1.05.28A5.48,5.48,0,0,0,339.37,72.15Z" style="fill: rgb(255, 199, 39); transform-origin: 341.627px 70.7976px;" id="elweltqwwhsq" class="animable"></path><path d="M397.56,84.49a11.09,11.09,0,0,1,8,6.1,12.27,12.27,0,1,0-19.39,10.92,11.18,11.18,0,0,1,11.36-17Z" style="fill: rgb(255, 199, 39); transform-origin: 393.309px 90.3918px;" id="elwi1b7gxtyd" class="animable"></path><path d="M410.34,89.43a15.85,15.85,0,0,1-.43,9.57,18.7,18.7,0,0,1-5.64,8,13.53,13.53,0,0,1-9.4,3.25,14.62,14.62,0,0,1-8.87-3.66,19.78,19.78,0,0,0,8.87,1.77,17.11,17.11,0,0,0,2.15-.3,12.1,12.1,0,0,0,2-.68,13.54,13.54,0,0,0,3.66-2.24c.56-.47,1.11-1,1.64-1.49s1-1.07,1.45-1.67a19.91,19.91,0,0,0,2.36-3.75A22.2,22.2,0,0,0,410.34,89.43Z" style="fill: rgb(255, 199, 39); transform-origin: 398.441px 99.8464px;" id="elp01a58pl1xg" class="animable"></path><path d="M351.55,59.34a3.87,3.87,0,0,1,2.71,2.28,4.31,4.31,0,1,0-7,3.48,3.92,3.92,0,0,1,4.28-5.76Z" style="fill: rgb(255, 199, 39); transform-origin: 349.951px 61.2619px;" id="elusnbuny1gyg" class="animable"></path><path d="M356,61.29a5.31,5.31,0,0,1-.22,3.4,6.52,6.52,0,0,1-2.13,2.79,4.77,4.77,0,0,1-3.45,1,4.92,4.92,0,0,1-3-1.55,7.22,7.22,0,0,0,3.08.66,4.69,4.69,0,0,0,2.72-1A7.85,7.85,0,0,0,356,61.29Z" style="fill: rgb(255, 199, 39); transform-origin: 351.691px 64.8979px;" id="el271xu0t098l" class="animable"></path><path d="M365.6,115.14a5.54,5.54,0,0,1,3.59,3.53,6.12,6.12,0,1,0-10.3,4.16,5.58,5.58,0,0,1,6.71-7.69Z" style="fill: rgb(255, 199, 39); transform-origin: 363.078px 117.538px;" id="eltqdnlwq408a" class="animable"></path><path d="M371.61,118.4a8,8,0,0,1-.85,4.7,9.31,9.31,0,0,1-3.3,3.61,6.71,6.71,0,0,1-4.83,1,7.31,7.31,0,0,1-4.16-2.35,9.53,9.53,0,0,0,4.27,1.47,6.66,6.66,0,0,0,4.11-1.09,10.36,10.36,0,0,0,3.14-3.08A11,11,0,0,0,371.61,118.4Z" style="fill: rgb(255, 199, 39); transform-origin: 365.071px 123.105px;" id="elr7iblkggxm" class="animable"></path></g></g></g><g id="freepik--Shadow--inject-317" class="animable" style="transform-origin: 250px 443.59px;"><ellipse cx="250" cy="443.59" rx="135" ry="25.84" style="fill: rgb(235, 235, 235); transform-origin: 250px 443.59px;" id="el80e8fqeadl" class="animable"></ellipse></g><g id="freepik--Floor--inject-317" class="animable" style="transform-origin: 250px 417.61px;"><polygon points="44.41 417.61 95.81 417.37 147.2 417.28 250 417.11 352.8 417.28 404.19 417.37 455.59 417.61 404.19 417.86 352.8 417.94 250 418.11 147.2 417.94 95.81 417.85 44.41 417.61" style="fill: rgb(38, 50, 56); transform-origin: 250px 417.61px;" id="elevrntgur0gq" class="animable"></polygon></g><g id="freepik--Pumpkin--inject-317" class="animable" style="transform-origin: 249.994px 278.388px;"><path d="M159.5,105.4c.93,9.82,2.82,19.62,6.79,28.19,2,4.22,4.53,8.14,7.85,10.85a16.82,16.82,0,0,0,11.08,4.09c7.85-.44,15.51-6.64,20.09-13.82a25.31,25.31,0,0,0,4-11.3c.15-3.65-1.18-6.13-3.89-7.7a5.28,5.28,0,0,0-3.67-.71,9.12,9.12,0,0,0-4.21,2,24.48,24.48,0,0,0-7,9.75c-3.32,7.84-4,17.18-.32,24.68a25.08,25.08,0,0,0,8,9.71,19.19,19.19,0,0,0,11.45,4.49c8.53.06,17-6.42,23.38-13.78a40.81,40.81,0,0,1-8.68,12.4,25.74,25.74,0,0,1-14.28,7.37,24,24,0,0,1-16.29-4,32.78,32.78,0,0,1-11.56-12.07c-5.46-10.18-5.35-22.43-1.13-32.69a34.54,34.54,0,0,1,10-14,19.55,19.55,0,0,1,9.06-4.19,15.87,15.87,0,0,1,10.52,2.14,17.78,17.78,0,0,1,7,7.51,19.35,19.35,0,0,1,1.81,9.75c-.44,6.3-3,11.56-6.14,16.13a43.18,43.18,0,0,1-11.86,11.51,28.58,28.58,0,0,1-16.37,4.87,23.12,23.12,0,0,1-15.55-7.2,35.41,35.41,0,0,1-7.93-13.9A72,72,0,0,1,159.5,105.4Z" style="fill: rgb(69, 90, 100); transform-origin: 195.925px 138.143px;" id="el16ugp6bszjs" class="animable"></path><path d="M279.34,163.65c-30.58,12.7-55.65,0-55.65,0-5-34.27,20.58-53.36,25.72-54.93a19.82,19.82,0,0,1,6-.22c8.5.59,21.64,3.47,21.64,5,0,2-6.57,9.08-8.54,24.48S279.34,163.65,279.34,163.65Z" style="fill: rgb(69, 90, 100); transform-origin: 251.193px 138.831px;" id="eleulygld02ur" class="animable"></path><path d="M279.34,163.65c-30.58,12.7-55.65,0-55.65,0s58.46,9,31.71-55.15c8.5.59,21.64,3.47,21.64,5,0,2-6.57,9.08-8.54,24.48S279.34,163.65,279.34,163.65Z" style="fill: rgb(55, 71, 79); transform-origin: 251.515px 138.897px;" id="elge0w2m4kprn" class="animable"></path><path d="M417.36,393.37c-.62,1.28-1.28,2.48-2,3.61-14.45,23.28-51.09,31.5-89.08,37.77,0,0-29.34,17.52-76.49,17.52a170.74,170.74,0,0,1-18.65-1c-34.45-3.73-57.8-16.46-57.8-16.46-38-6.28-71.57-8.07-89.12-37.81C62.36,359.9,94.65,244.33,124.87,193.1c13.14-22.19,48.1-37.56,79.22-37.56,22,0,36.64,6.76,45.73,6.76,8.47,0,19.38-7.34,41.86-7.34a117.5,117.5,0,0,1,23.61,2.52l0,0a109.81,109.81,0,0,1,10.92,2.78,114.33,114.33,0,0,1,21.86,9l0,0c11.53,6.24,21.06,14.3,26.64,23.76C404.11,242.76,436.08,353.3,417.36,393.37Z" style="fill: rgb(255, 199, 39); transform-origin: 249.994px 303.615px;" id="elk6jsqe858zd" class="animable"></path><g id="elwokatyaojm"><path d="M417.36,393.37c-.62,1.28-1.28,2.48-2,3.61-14.45,23.28-51.09,31.5-89.08,37.77,0,0-29.34,17.52-76.49,17.52a170.74,170.74,0,0,1-18.65-1c-34.45-3.73-57.8-16.46-57.8-16.46-38-6.28-71.57-8.07-89.12-37.81C62.36,359.9,94.65,244.33,124.87,193.1c13.14-22.19,48.1-37.56,79.22-37.56,22,0,36.64,6.76,45.73,6.76,8.47,0,19.38-7.34,41.86-7.34a117.5,117.5,0,0,1,23.61,2.52l0,0a109.81,109.81,0,0,1,10.92,2.78,114.33,114.33,0,0,1,21.86,9l0,0c11.53,6.24,21.06,14.3,26.64,23.76C404.11,242.76,436.08,353.3,417.36,393.37Z" style="opacity: 0.2; transform-origin: 249.994px 303.615px;" class="animable"></path></g><g id="ellkk4x1civkk"><g style="opacity: 0.1; transform-origin: 248.241px 298.49px;" class="animable"><path d="M165.6,258.41a207.73,207.73,0,0,1,9.78-32.82,143.94,143.94,0,0,1,16.56-30.23,86.89,86.89,0,0,1,25.5-23.64,64.48,64.48,0,0,1,33.74-9.51A74.19,74.19,0,0,1,285,171.3a79.43,79.43,0,0,1,26,23.18c13.81,18.87,20.41,41.54,23.92,63.93-3-11-5.84-22-10.51-32.34-4.3-10.41-9.58-20.47-16.64-29.13s-15.22-16.34-25-21.42a69.39,69.39,0,0,0-31.61-8,59.3,59.3,0,0,0-31.24,8.38c-9.56,5.49-17.7,13.29-24.72,22C181.23,215.44,172.45,236.76,165.6,258.41Z" id="elykh36rda9z" class="animable" style="transform-origin: 250.26px 210.31px;"></path><path d="M173.61,434.77a53.89,53.89,0,0,1-15.06-10,60.46,60.46,0,0,1-11.43-14.29,58.62,58.62,0,0,1-6.45-17.16,50.55,50.55,0,0,1-.28-18.1,143,143,0,0,0,4.26,17,90.8,90.8,0,0,0,7,15.59C157.3,417.83,165,426.44,173.61,434.77Z" id="el9r46gvzvyd" class="animable" style="transform-origin: 156.659px 404.995px;"></path><path d="M326.9,434.77c8.61-8.33,16.3-16.94,21.91-26.91a91.61,91.61,0,0,0,7.05-15.59,147,147,0,0,0,4.26-17,51,51,0,0,1-.28,18.1,58.64,58.64,0,0,1-6.46,17.16A60.21,60.21,0,0,1,342,424.77,53.7,53.7,0,0,1,326.9,434.77Z" id="elv136yqbwob" class="animable" style="transform-origin: 343.848px 405.02px;"></path><path d="M148.61,430.82c-8.91-3.37-16.45-10-22.26-17.68s-9.82-16.74-12.47-26-3.53-18.91-3.78-28.42c.12-4.76.43-9.52.81-14.24.82-4.69,1.46-9.37,2.44-14,.21,4.75.09,9.43.14,14.1l.72,13.95c1.08,9.19,2,18.41,4.74,27.17a93.65,93.65,0,0,0,10.77,25.07C134.69,418.42,140.7,425.64,148.61,430.82Z" id="elte7igy0tlka" class="animable" style="transform-origin: 129.355px 380.65px;"></path><path d="M144,269.65a87.63,87.63,0,0,1,2.52-18.95,122.54,122.54,0,0,1,5.85-18.24c4.9-11.76,11.71-23.08,21.26-31.65-3,5.66-6.1,11.05-8.79,16.67s-5.33,11.22-7.6,17C152.43,246,148.35,257.68,144,269.65Z" id="elu3e0lc09by" class="animable" style="transform-origin: 158.815px 235.23px;"></path><path d="M372.07,395.48c3.38-5.52,5.05-11.61,6.42-17.68a121.59,121.59,0,0,0,2.41-18.57c.52-6.25.45-12.55.53-18.9l-.12-9.56c-.08-3.19-.17-6.4,0-9.67,1,3.08,1.8,6.22,2.6,9.37s1.18,6.38,1.66,9.59.59,6.48.79,9.73c0,3.26.11,6.53-.17,9.8a73.5,73.5,0,0,1-3.72,19.32C380.27,385.07,377.2,391.31,372.07,395.48Z" id="el66hi8zkoqdv" class="animable" style="transform-origin: 379.226px 358.29px;"></path></g></g><g id="elkoyvtuav7j"><path d="M316.2,415.52a3,3,0,0,1,1.61,3.49,2.89,2.89,0,0,1-4,1.32,2.68,2.68,0,0,1,2.35-4.81Z" style="opacity: 0.2; transform-origin: 315.169px 417.992px;" class="animable"></path></g><g id="elbnb0p00bcg"><path d="M405.68,318.64a3,3,0,0,1,1.6,3.49,2.88,2.88,0,0,1-3.95,1.32,2.76,2.76,0,0,1-1.3-3.4A2.8,2.8,0,0,1,405.68,318.64Z" style="opacity: 0.2; transform-origin: 404.621px 321.098px;" class="animable"></path></g><g id="elezjg711kkpr"><path d="M162.26,179.42a3,3,0,0,1,1.61,3.49,2.89,2.89,0,0,1-4,1.33,2.68,2.68,0,0,1,2.35-4.82Z" style="opacity: 0.2; transform-origin: 161.17px 181.869px;" class="animable"></path></g><g id="el1mb6h34h0oh"><path d="M325.51,165.19a3,3,0,0,1,1.61,3.49,2.89,2.89,0,0,1-4,1.33,2.68,2.68,0,0,1,2.35-4.82Z" style="opacity: 0.2; transform-origin: 324.418px 167.639px;" class="animable"></path></g><g id="els1sps2rgh7s"><path d="M170.27,399.39a3,3,0,0,1,1.61,3.49,2.88,2.88,0,0,1-4,1.32,2.77,2.77,0,0,1-1.3-3.4A2.81,2.81,0,0,1,170.27,399.39Z" style="opacity: 0.2; transform-origin: 169.197px 401.853px;" class="animable"></path></g><g id="ell95oxaxphf"><path d="M312.27,428.83a2,2,0,0,1-2.21,1.14,1.86,1.86,0,0,1-1-2.51,1.78,1.78,0,0,1,2.15-.94A1.82,1.82,0,0,1,312.27,428.83Z" style="opacity: 0.2; transform-origin: 310.632px 428.222px;" class="animable"></path></g><g id="eltv7ar9xdhx"><path d="M174.35,184.66a1.94,1.94,0,0,1-2.2,1.14,1.86,1.86,0,0,1-1-2.5,1.73,1.73,0,0,1,3.18,1.36Z" style="opacity: 0.2; transform-origin: 172.716px 184.07px;" class="animable"></path></g><g id="el0xqzl5e6ou"><path d="M127.6,219.56a1.94,1.94,0,0,1-2.2,1.15,1.86,1.86,0,0,1-1-2.51,1.73,1.73,0,0,1,3.18,1.36Z" style="opacity: 0.2; transform-origin: 125.964px 218.974px;" class="animable"></path></g><g id="el4wekn5y75t9"><path d="M318.09,173.08a1.94,1.94,0,0,1-2.2,1.14,1.88,1.88,0,0,1-1-2.51,1.73,1.73,0,0,1,3.18,1.37Z" style="opacity: 0.2; transform-origin: 316.468px 172.464px;" class="animable"></path></g><g id="elmphvntykg4"><path d="M161.94,396.17a2,2,0,0,1-2.2,1.14,1.86,1.86,0,0,1-1-2.51,1.73,1.73,0,0,1,3.18,1.37Z" style="opacity: 0.2; transform-origin: 160.314px 395.551px;" class="animable"></path></g><g id="elop0aq18wzrl"><path d="M325.06,421.2a3.9,3.9,0,0,1,4.65,1.79c.88,1.81-.56,4.29-2.47,4.81a3.58,3.58,0,0,1-4.29-2A3.62,3.62,0,0,1,325.06,421.2Z" style="opacity: 0.2; transform-origin: 326.356px 424.47px;" class="animable"></path></g><g id="el7sb8sa5i69t"><path d="M249.82,452.27a170.74,170.74,0,0,1-18.65-1c-34-3.68-57.19-16.13-57.79-16.45h0c-38-6.27-71.54-8.07-89.08-37.8C62.36,359.9,94.65,244.33,124.87,193.1c11.58-19.56,40.12-33.82,68-36.93l.37,0,.14.38c-30.69,13.82-46.26,36.32-59.5,82.05s-17.36,122.05-6.2,145.3,40.23,31.44,40.23,31.44S203.38,452.27,249.82,452.27Z" style="opacity: 0.1; transform-origin: 163.451px 304.22px;" class="animable"></path></g><g id="el9djeczk07h6"><path d="M173.33,434.78c-38-6.27-71.54-8.07-89.08-37.8C62.36,359.9,94.65,244.33,124.87,193.1c11.58-19.56,40.12-33.82,68-36.93l.51.34c-32.2,7-63.33,36.3-76.56,82s-33.76,123-11.62,158.84C118.58,419,171.67,434.3,173.33,434.78Z" style="opacity: 0.1; transform-origin: 135.22px 295.475px;" class="animable"></path></g><path d="M250.07,162.31a71.86,71.86,0,0,1,28.48-9.63,35.31,35.31,0,0,1,15.89,1.91,23.07,23.07,0,0,1,12.67,11.53,28.61,28.61,0,0,1,1.88,17,43.43,43.43,0,0,1-6,15.4c-3,4.66-6.84,9.07-12.48,11.92a19.49,19.49,0,0,1-9.69,2.12,17.82,17.82,0,0,1-9.64-3.54,15.89,15.89,0,0,1-6.05-8.86,19.38,19.38,0,0,1,.34-10,34.56,34.56,0,0,1,9.05-14.69c7.82-7.88,19.07-12.73,30.58-11.66a32.83,32.83,0,0,1,15.61,6,24,24,0,0,1,10,13.45c1.54,5.59.59,11.22-1.24,16a41.1,41.1,0,0,1-8.06,12.82c4.31-8.73,7-19.06,3.62-26.9a19.16,19.16,0,0,0-8.59-8.81,25,25,0,0,0-12.05-3.61c-8.34-.47-16.68,3.77-22.62,9.87a24.56,24.56,0,0,0-6.26,10.28,9.3,9.3,0,0,0-.18,4.64,5.31,5.31,0,0,0,2.08,3.11c2.5,1.88,5.3,2.15,8.6.59a25.13,25.13,0,0,0,8.86-8.1c4.83-7,7.57-16.48,4.93-23.88a16.84,16.84,0,0,0-8.07-8.62c-3.79-2-8.38-2.81-13.05-3C269.26,157.29,259.49,159.35,250.07,162.31Z" style="fill: rgb(69, 90, 100); transform-origin: 290.775px 182.524px;" id="elz30uwoagrh" class="animable"></path><g id="elxkq73j36fia"><path d="M336.33,181.23c-4.83,4.15-2.44,14.83,5.33,23.85s18,13,22.8,8.82,2.43-14.84-5.33-23.86S341.15,177.08,336.33,181.23Z" style="fill: rgb(255, 255, 255); opacity: 0.5; transform-origin: 350.387px 197.571px;" class="animable"></path></g><g id="el4adzhc8cqqd"><path d="M370.76,223.16a9.22,9.22,0,1,0,13,1A9.23,9.23,0,0,0,370.76,223.16Z" style="fill: rgb(255, 255, 255); opacity: 0.5; transform-origin: 376.76px 230.163px;" class="animable"></path></g><g id="elyrcoxyssu2j"><path d="M235.34,273.51c-.4-.29,15.72-35,16.43-35.21.14-.05,3.75,0,3.75,0,2.54,8.39,5.63,34,5.4,34.58S236.91,274.65,235.34,273.51Z" style="opacity: 0.3; transform-origin: 248.132px 256.132px;" class="animable"></path></g><path d="M239.08,273.51c-.4-.29,15.72-35,16.44-35.21s9.43,33.82,9.14,34.58S240.65,274.65,239.08,273.51Z" style="fill: rgb(255, 199, 39); transform-origin: 251.87px 256.161px;" id="elnmd0nqaj2rm" class="animable"></path><g id="elam3iy0sbz0e"><path d="M328.94,315.13c-7.59,7.14-15,13.51-24.59,17.82-.68.31-3.12,0-3.74.13L297,314.66l-27.16,8.4,7.78,17.56A139,139,0,0,1,251,344.4c-21.2.76-48.93-4.87-75.91-24.85-30.54-22.62-45.56-58.12-37.23-65.77,6.2-5.69,15.14.11,33.7,13.77a108.27,108.27,0,0,0,18.21,10.66l-9.82,16.61,22.94,10.9,7.63-19.92c.79.22,3-.33,3.74-.13,1.29.33,1.21,1.4,2.52,1.69l-3.19,17.4,18.38,2.49.16-17.4c1,.09,2.77-.21,3.74-.14a111.41,111.41,0,0,0,13.21.71c17.62-.63,46.84-5.13,61.53-12.66,21.06-10.8,40.63-33.51,48.2-21.72S350.89,294.47,328.94,315.13Z" style="opacity: 0.3; transform-origin: 248.17px 298.037px;" class="animable"></path></g><path d="M332.67,315c-8.12,7.64-18,13.53-28.32,17.95l-3.63-18.42-27.16,8.4,7.78,17.56a139,139,0,0,1-26.64,3.78c-21.2.75-48.93-4.88-75.91-24.85-30.54-22.62-45.56-58.12-37.23-65.77,6.2-5.69,15.14.11,33.7,13.76a107.62,107.62,0,0,0,18.21,10.67l-9.82,16.6,22.94,10.91,7.63-19.92c2.06.57,4.14,1.09,6.26,1.56l-3.2,17.4,18.39,2.49.16-17.41a124,124,0,0,0,16.95.57c17.62-.63,46.84-5.13,61.53-12.65,21.06-10.8,40.63-33.51,48.2-21.72S354.63,294.34,332.67,315Z" style="fill: rgb(255, 199, 39); transform-origin: 251.871px 297.906px;" id="elq0ymnfbcbmj" class="animable"></path><g id="eluy7nb8oxf1"><path d="M201.39,216.56c-14.21-1.24-21.47,9.83-22.38,17.84-.84,7.38,1.91,22.3,17.92,23.75,14.76,1.35,21.66-8.78,22.39-19.93C220,228.23,211.81,217.47,201.39,216.56Z" style="opacity: 0.3; transform-origin: 199.117px 237.368px;" class="animable"></path></g><path d="M206.16,216.56c-14.22-1.24-21.48,9.83-22.39,17.84-.84,7.38,1.91,22.3,17.93,23.75,14.75,1.35,21.66-8.78,22.39-19.93C224.74,228.23,216.57,217.47,206.16,216.56Z" style="fill: rgb(255, 199, 39); transform-origin: 203.881px 237.368px;" id="elj7wrrqrbvms" class="animable"></path><g id="elpu41y6dy2nb"><path d="M302,216.56c-14.21-1.24-21.47,9.83-22.38,17.84-.84,7.38,1.91,22.3,17.92,23.75,14.75,1.35,21.66-8.78,22.39-19.93C320.62,228.23,312.46,217.47,302,216.56Z" style="opacity: 0.3; transform-origin: 299.728px 237.368px;" class="animable"></path></g><path d="M306.81,216.56c-14.22-1.24-21.48,9.83-22.39,17.84-.84,7.38,1.91,22.3,17.93,23.75,14.75,1.35,21.66-8.78,22.39-19.93C325.39,228.23,317.22,217.47,306.81,216.56Z" style="fill: rgb(255, 199, 39); transform-origin: 304.531px 237.368px;" id="el06wbxjm8b3hb" class="animable"></path><g id="el0mtc36qlgbsj"><g style="opacity: 0.9; transform-origin: 250.076px 302.819px;" class="animable"><path d="M356.22,330.27c-7,9.23-74.44,34.42-106.11,34.43h0c-31.67,0-99.15-25.2-106.11-34.43-19.83-26.29-15.31-89.12-12.27-89.33s36.48,12.56,52,14.82c30.77,4.47,52.14-9.52,66.34-9.53h0c14.2,0,35.57,14,66.34,9.53,15.56-2.26,49-15,52-14.82S376.05,304,356.22,330.27Z" style="fill: rgb(255, 255, 255); transform-origin: 250.076px 302.819px;" id="el0kfph20qbd3" class="animable"></path><path d="M359.13,260.78c-20.3,4.22-33.51,7.71-53.45,6.23-18.6-1.37-34.7-8.52-52.84-10.81-17.36-2.19-33.39,4.33-49.87,7.9-20.58,4.46-42.83.46-62.61-2.85-.24,0-.25.26,0,.34,18.08,5.63,36.75,9.77,54.65,7,21.16-3.33,41.26-12.91,63.15-8.26,16.36,3.48,30.52,8.23,47.52,9.16,20,1.09,32.93-2.22,53.45-7.4C360,261.81,360,260.6,359.13,260.78Z" style="fill: rgb(235, 235, 235); transform-origin: 249.979px 262.729px;" id="el8hhcz9l09i9" class="animable"></path><path d="M331.23,331.11c-26.67,7.14-57.43,19.44-86.3,17.75-30.83-1.81-60.79-11.67-88.18-22-.29-.1-.52.19-.25.33,24.94,12.28,56,21.77,85.84,23.35s62.59-9.88,89.15-19C331.83,331.46,331.59,331,331.23,331.11Z" style="fill: rgb(235, 235, 235); transform-origin: 244.017px 338.763px;" id="eljopevj6l4xk" class="animable"></path><path d="M353.75,307.06c-34.52,7.33-68.63,14.25-104.88,14.14-34.89-.1-68.49-6.4-101.84-13.37-.06,0-.08.06,0,.08,32.89,8.36,66.91,16,101.86,16.12,35.79.14,71.54-7.43,105.1-16.36C354.47,307.54,354.27,306.94,353.75,307.06Z" style="fill: rgb(235, 235, 235); transform-origin: 250.62px 315.538px;" id="elix29rmwzevk" class="animable"></path></g></g><path d="M133.91,244.2a24.46,24.46,0,0,1-7.91-2.3,43.21,43.21,0,0,1-7-4.09,48.38,48.38,0,0,1-6.23-5.2c-1-1-1.87-2-2.75-3a32.44,32.44,0,0,1-2.42-3.35,34,34,0,0,1,3.67,1.84c1.19.64,2.33,1.35,3.46,2.05,2.26,1.4,4.42,2.89,6.57,4.39s4.25,3.08,6.35,4.67S131.77,242.45,133.91,244.2Z" style="fill: rgb(255, 255, 255); transform-origin: 120.755px 235.23px;" id="else75qaybdu" class="animable"></path><path d="M367.32,244.2a24.46,24.46,0,0,0,7.91-2.3,43.21,43.21,0,0,0,7-4.09,48.38,48.38,0,0,0,6.23-5.2q1.44-1.44,2.76-3a33.92,33.92,0,0,0,2.41-3.35A34,34,0,0,0,390,228.1c-1.19.64-2.33,1.35-3.45,2.05-2.26,1.4-4.43,2.89-6.58,4.39s-4.24,3.08-6.34,4.67S369.47,242.45,367.32,244.2Z" style="fill: rgb(255, 255, 255); transform-origin: 380.475px 235.23px;" id="elyncemg7l8xl" class="animable"></path><path d="M147.11,331c-1.54-.47-3.06-1-4.59-1.52-.77-.26-1.52-.54-2.28-.82l-2.22-1-4.4-2.07c-1.42-.77-2.81-1.59-4.23-2.39a99,99,0,0,1-15.67-11.48,114.6,114.6,0,0,1-13.36-14.07,88,88,0,0,1-10.51-16.23c4.21,4.88,8.47,9.59,12.86,14.18s9,8.93,13.66,13.13a184.46,184.46,0,0,0,14.72,11.87c1.29.91,2.59,1.81,3.87,2.75l4,2.59,2,1.33c.68.4,1.38.78,2.06,1.2C144.37,329.33,145.75,330.16,147.11,331Z" style="fill: rgb(255, 255, 255); transform-origin: 118.48px 306.21px;" id="elw713cxcfvm9" class="animable"></path><path d="M355.92,331c1.53-.47,3.06-1,4.58-1.52.77-.26,1.53-.54,2.29-.82l2.21-1,4.4-2.07c1.43-.77,2.82-1.59,4.23-2.39a98.58,98.58,0,0,0,15.68-11.48,114.6,114.6,0,0,0,13.36-14.07,88,88,0,0,0,10.5-16.23c-4.2,4.88-8.47,9.59-12.85,14.18s-9,8.93-13.67,13.13a181,181,0,0,1-14.72,11.87c-1.28.91-2.59,1.81-3.86,2.75l-4,2.59-2,1.33c-.69.4-1.38.78-2.06,1.2C358.65,329.33,357.28,330.16,355.92,331Z" style="fill: rgb(255, 255, 255); transform-origin: 384.545px 306.21px;" id="el8xkihdwyxiw" class="animable"></path></g><g id="freepik--Bats--inject-317" class="animable animator-active" style="transform-origin: 249.97px 117.795px;"><path d="M416.22,135.82s.38,10.81-4.79,16.58c-.6.67-4.33-3.48-4.33-3.48V151a3,3,0,0,0-3.15,1.8l-2-1.66s1.79,5.32,1.31,6.43-12.95-.94-16.93-4.91c-.41-.41-2.55,7.46-8.91,11.33,0,0,6.29-1.38,9.67,2.83,0,0,6.91-5.8,12.58,1.59,0,0,5.52-6.91,13.81-1,0,0-2.07-8.09,7.6-11.47,0,0-2.83-8.57,5.39-12.78,0,0-1.31-7.39,4.28-12A37.73,37.73,0,0,1,416.22,135.82Z" style="fill: rgb(38, 50, 56); transform-origin: 404.085px 149.785px;" id="elpbgo75evrma" class="animable"></path><path d="M344.71,120.57s-4.13,4.74-8.62,5.14c-.52.05-.46-3.19-.46-3.19l-.82.88a1.76,1.76,0,0,0-2.05-.49l-.18-1.49s-1.35,3-2,3.26-5.14-5.54-5.25-8.81c0-.34-4,2.16-8.29,1.28,0,0,3.22,1.91,3,5,0,0,5.24.28,4.71,5.67,0,0,5.1-.74,6.29,5,0,0,2.33-4.26,7.78-1.86,0,0,2.2-4.77,7.37-3.29,0,0,2.38-3.67,6.56-3.38A22,22,0,0,1,344.71,120.57Z" style="fill: rgb(38, 50, 56); transform-origin: 334.895px 124.329px;" id="el5d5dgttrdfp" class="animable"></path><path d="M93.76,98.66s-.63,6.26-4.07,9.18c-.39.34-2.22-2.35-2.22-2.35l-.16,1.2a1.77,1.77,0,0,0-2,.79l-1-1.11s.62,3.2.25,3.8-7.39-1.55-9.37-4.15c-.2-.27-2.06,4.1-6,5.83,0,0,3.73-.3,5.35,2.39,0,0,4.44-2.8,7.12,1.9,0,0,3.73-3.55,8,.49,0,0-.56-4.82,5.28-6,0,0-1-5.16,4.11-7,0,0-.18-4.36,3.4-6.55A22,22,0,0,1,93.76,98.66Z" style="fill: rgb(38, 50, 56); transform-origin: 85.82px 106.855px;" id="eloeiv7ogpt" class="animable"></path><path d="M132.78,73.85s-3.3,2.2-6.1,1.7c-.32-.06.25-2,.25-2l-.64.4a1.12,1.12,0,0,0-1.17-.64l.14-.93S124,73.94,123.51,74s-2.2-4.22-1.73-6.22c0-.21-2.81.64-5.24-.6,0,0,1.64,1.69,1,3.56A3.11,3.11,0,0,1,119.44,75a3.58,3.58,0,0,1,3,4.11s2.12-2.2,5,.16a3.9,3.9,0,0,1,5-.77,4.89,4.89,0,0,1,4.55-1A13.7,13.7,0,0,1,132.78,73.85Z" style="fill: rgb(38, 50, 56); transform-origin: 126.765px 73.225px;" id="eldknburckctm" class="animable"></path></g><defs>     <filter id="active" height="200%">         <feMorphology in="SourceAlpha" result="DILATED" operator="dilate" radius="2"></feMorphology>                <feFlood flood-color="#32DFEC" flood-opacity="1" result="PINK"></feFlood>        <feComposite in="PINK" in2="DILATED" operator="in" result="OUTLINE"></feComposite>        <feMerge>            <feMergeNode in="OUTLINE"></feMergeNode>            <feMergeNode in="SourceGraphic"></feMergeNode>        </feMerge>    </filter>    <filter id="hover" height="200%">        <feMorphology in="SourceAlpha" result="DILATED" operator="dilate" radius="2"></feMorphology>                <feFlood flood-color="#ff0000" flood-opacity="0.5" result="PINK"></feFlood>        <feComposite in="PINK" in2="DILATED" operator="in" result="OUTLINE"></feComposite>        <feMerge>            <feMergeNode in="OUTLINE"></feMergeNode>            <feMergeNode in="SourceGraphic"></feMergeNode>        </feMerge>            <feColorMatrix type="matrix" values="0   0   0   0   0                0   1   0   0   0                0   0   0   0   0                0   0   0   1   0 "></feColorMatrix>    </filter></defs></svg>